<svg width="384" height="296" viewBox="0 0 384 296" fill="none" xmlns="http://www.w3.org/2000/svg">
<path fill-rule="evenodd" clip-rule="evenodd" d="M61.0655 179.163L61.1102 179.119C63.3427 176.954 66.3637 175.737 69.5112 175.737H165.226C171.193 175.737 176.03 171.019 176.03 165.2V127.359C176.03 124.305 177.279 121.376 179.499 119.22L179.541 119.181C181.775 117.015 184.795 115.799 187.945 115.799H226.686C232.652 115.799 237.491 111.081 237.491 105.261V70.7792C237.491 64.9612 232.652 60.2423 226.686 60.2423H187.941C184.781 60.2423 181.752 59.0186 179.52 56.8416C177.286 54.6635 176.03 51.7102 176.03 48.6298V10.8417C176.03 5.02243 171.193 0.304657 165.226 0.304657H11.6078C5.54153 0.304657 0.622864 5.09966 0.622864 11.0175V45.1482C0.622864 51.0647 5.54153 55.861 11.6078 55.861H168.593C171.756 55.861 174.787 57.0858 177.025 59.2666C179.261 61.4472 180.518 64.4042 180.518 67.4883V108.588C180.518 111.658 179.263 114.604 177.031 116.77L177.002 116.799C174.771 118.965 171.749 120.181 168.601 120.181H72.8874C66.9209 120.181 62.0827 124.899 62.0827 130.718V168.53C62.0827 171.593 60.8342 174.53 58.6145 176.697L58.5749 176.733C56.3539 178.898 53.3431 180.117 50.202 180.117H11.4289C5.46112 180.117 0.622864 184.834 0.622864 190.653V225.135C0.622864 230.955 5.45975 235.671 11.4289 235.671H50.2416C53.3815 235.671 56.3948 236.887 58.6145 239.055C60.8342 241.219 62.0827 244.156 62.0827 247.218V285.027C62.0827 290.846 66.9209 295.562 72.8874 295.564L226.506 295.565C232.573 295.565 237.491 290.768 237.491 284.852V250.721C237.491 244.805 232.573 240.009 226.506 240.009L69.5099 240.006C66.3612 240.006 63.3402 238.792 61.1077 236.625L61.0655 236.586C58.8457 234.432 57.5972 231.504 57.5972 228.451V187.299C57.5972 184.244 58.8457 181.317 61.0655 179.163Z" fill="#44EB99"/>
<path d="M311.672 0.304657C317.668 0.304657 322.527 5.04335 322.527 10.8886V48.6299C322.527 51.7102 323.781 54.6636 326.014 56.8418C328.249 59.02 331.278 60.2422 334.437 60.2422H373.132C379.128 60.2422 383.986 64.9814 383.986 70.8281V284.98C383.986 290.826 379.128 295.565 373.132 295.565H337.867C331.873 295.565 327.014 290.826 327.013 284.98V67.4824C327.013 64.402 325.758 61.4484 323.525 59.2715L323.516 59.2617C321.282 57.0836 318.253 55.8613 315.095 55.8613H276.41C270.414 55.8613 265.554 51.1206 265.554 45.2763V10.8886C265.554 5.04335 270.414 0.304657 276.41 0.304657H311.672ZM343.634 254.391C342.998 254.391 342.483 254.894 342.483 255.513V277.92C342.483 278.54 342.998 279.043 343.634 279.043H347.714C348.019 279.043 348.311 279.161 348.527 279.371L348.584 279.427C348.8 279.637 348.922 279.924 348.922 280.222V284.199C348.922 284.819 349.436 285.322 350.071 285.322H366.144C366.78 285.322 367.297 284.819 367.297 284.199V280.624C367.297 280.004 366.78 279.502 366.144 279.502H349.66C349.353 279.502 349.062 279.383 348.846 279.173L348.789 279.116C348.573 278.906 348.451 278.622 348.451 278.323V255.513C348.451 254.894 347.936 254.391 347.3 254.391H343.634ZM350.072 217.645C349.438 217.646 348.923 218.15 348.923 218.769V222.748C348.923 223.046 348.801 223.331 348.585 223.541L348.528 223.598C348.313 223.808 348.02 223.925 347.715 223.925H343.635C343 223.925 342.483 224.428 342.483 225.048V241.177C342.483 241.795 343 242.3 343.635 242.3H347.714C348.02 242.3 348.311 242.416 348.527 242.627L348.585 242.683C348.801 242.893 348.923 243.18 348.923 243.477V247.454C348.923 248.075 349.438 248.578 350.072 248.578L359.708 248.577C360.344 248.577 360.858 248.075 360.858 247.454V243.477C360.858 243.179 360.981 242.893 361.197 242.683L361.25 242.632C361.466 242.422 361.758 242.304 362.063 242.304H366.145C366.781 242.304 367.297 241.8 367.297 241.18V225.048C367.297 224.428 366.781 223.925 366.145 223.925H362.067C361.761 223.925 361.468 223.808 361.252 223.598L361.197 223.542C360.981 223.332 360.858 223.046 360.858 222.749V218.769C360.858 218.15 360.344 217.646 359.708 217.645H350.072ZM360.12 223.466C360.427 223.466 360.717 223.585 360.933 223.796L360.991 223.852C361.207 224.062 361.33 224.347 361.33 224.646V241.58C361.33 241.878 361.207 242.163 360.991 242.374L360.936 242.429C360.72 242.639 360.428 242.757 360.121 242.757H349.66C349.354 242.757 349.062 242.639 348.846 242.429L348.79 242.372C348.574 242.163 348.453 241.878 348.453 241.579V224.646C348.453 224.347 348.574 224.062 348.79 223.852L348.846 223.796C349.062 223.585 349.355 223.466 349.661 223.466H360.12ZM350.072 180.901C349.438 180.901 348.923 181.405 348.923 182.024V186.004C348.923 186.3 348.801 186.586 348.585 186.797L348.528 186.852C348.313 187.063 348.02 187.18 347.715 187.18H343.635C343 187.18 342.483 187.683 342.483 188.304V204.433C342.483 205.051 343 205.556 343.635 205.556H347.714C348.02 205.556 348.311 205.672 348.527 205.883L348.585 205.938C348.801 206.15 348.923 206.435 348.923 206.732V210.71C348.923 211.33 349.438 211.833 350.072 211.833H359.708C360.344 211.833 360.858 211.33 360.858 210.71V206.732C360.858 206.435 360.981 206.15 361.197 205.938L361.25 205.887C361.466 205.676 361.758 205.559 362.063 205.559H366.145C366.781 205.559 367.297 205.055 367.297 204.436V188.304C367.297 187.683 366.781 187.18 366.145 187.18H362.067C361.761 187.18 361.468 187.063 361.252 186.852L361.197 186.797C360.981 186.586 360.858 186.302 360.858 186.004V182.024C360.858 181.405 360.344 180.901 359.708 180.901H350.072ZM360.12 186.721C360.427 186.721 360.717 186.84 360.933 187.051L360.991 187.106C361.207 187.317 361.33 187.602 361.33 187.901V204.835C361.33 205.134 361.207 205.42 360.991 205.63L360.936 205.684C360.72 205.894 360.427 206.012 360.121 206.013H349.66C349.354 206.013 349.062 205.895 348.846 205.685L348.79 205.629C348.574 205.417 348.453 205.134 348.453 204.835V187.901C348.453 187.602 348.574 187.317 348.79 187.106L348.846 187.051C349.062 186.84 349.355 186.721 349.661 186.721H360.12ZM343.603 144.158C342.985 144.158 342.483 144.647 342.483 145.252V173.996C342.483 174.599 342.985 175.088 343.603 175.088H347.331C347.949 175.088 348.453 174.599 348.453 173.996V156.082L348.593 156.221C348.803 156.425 348.922 156.704 348.922 156.993V161.015C348.922 161.617 349.423 162.106 350.043 162.106H360.133C360.43 162.106 360.716 162.223 360.926 162.428L361 162.499C361.209 162.704 361.329 162.983 361.329 163.272V173.996C361.329 174.599 361.831 175.088 362.449 175.088H366.176C366.794 175.088 367.298 174.599 367.298 173.996V145.252C367.298 144.647 366.794 144.158 366.176 144.158H362.449C361.831 144.158 361.329 144.647 361.329 145.252V162.311L361.188 162.173C360.978 161.969 360.858 161.69 360.858 161.4V157.38C360.858 156.777 360.356 156.286 359.737 156.286H349.647C349.35 156.286 349.065 156.171 348.855 155.966L348.78 155.894C348.569 155.689 348.453 155.41 348.453 155.12V145.252C348.453 144.647 347.949 144.158 347.331 144.158H343.603ZM350.072 107.414C349.436 107.414 348.922 107.917 348.922 108.537V112.515C348.922 112.812 348.8 113.098 348.584 113.31L348.527 113.365C348.311 113.576 348.019 113.692 347.714 113.692H343.634C342.998 113.692 342.483 114.197 342.483 114.815V130.944C342.483 131.563 342.998 132.065 343.634 132.065H347.713C348.019 132.065 348.31 132.183 348.526 132.394L348.584 132.451C348.8 132.662 348.922 132.946 348.922 133.244V137.224C348.922 137.842 349.436 138.346 350.072 138.346H359.707C360.343 138.346 360.858 137.842 360.858 137.222V133.244C360.858 132.946 360.98 132.662 361.196 132.451L361.249 132.399C361.465 132.189 361.757 132.069 362.062 132.069H366.144C366.781 132.069 367.298 131.568 367.298 130.949V127.373C367.298 126.753 366.781 126.25 366.144 126.25H362.478C361.844 126.25 361.329 126.753 361.329 127.373V131.346C361.329 131.646 361.207 131.931 360.991 132.142L360.935 132.196C360.719 132.407 360.426 132.525 360.121 132.525H349.658C349.355 132.525 349.061 132.407 348.845 132.196L348.789 132.142C348.573 131.931 348.451 131.645 348.451 131.348V114.412C348.451 114.114 348.573 113.831 348.789 113.62L348.846 113.562C349.061 113.352 349.356 113.234 349.66 113.234H360.119C360.425 113.234 360.716 113.352 360.932 113.562L360.99 113.62C361.206 113.831 361.329 114.114 361.329 114.412V118.391C361.329 119.011 361.842 119.512 362.478 119.512H366.144C366.78 119.512 367.297 119.011 367.297 118.391V114.815C367.297 114.197 366.78 113.692 366.144 113.692H362.066C361.761 113.692 361.467 113.576 361.252 113.365L361.196 113.311C360.98 113.1 360.858 112.812 360.858 112.516V108.537C360.858 107.917 360.343 107.414 359.707 107.414H350.072ZM350.072 70.6699C349.436 70.67 348.922 71.1717 348.922 71.791V75.7695C348.922 76.0685 348.8 76.3528 348.584 76.5634L348.527 76.6181C348.311 76.8287 348.019 76.9482 347.715 76.9482H343.634C342.998 76.9482 342.483 77.4497 342.483 78.0703V81.6455C342.483 82.2646 342.998 82.7675 343.634 82.7675H347.715C348.019 82.7675 348.311 82.885 348.527 83.0957L348.584 83.1513C348.8 83.3618 348.922 83.6475 348.922 83.9453V87.9238C348.922 88.5431 349.436 89.0468 350.072 89.0468H360.121C360.426 89.0469 360.717 89.1644 360.933 89.375L360.991 89.4306C361.207 89.6412 361.329 89.9267 361.329 90.2246V94.6025C361.329 94.9002 361.207 95.1841 360.991 95.3945L360.933 95.4502C360.72 95.6606 360.426 95.7802 360.121 95.7802H343.634C342.998 95.7802 342.483 96.2817 342.483 96.9013V100.478C342.483 101.096 342.998 101.599 343.634 101.599H359.707C360.343 101.598 360.858 101.096 360.858 100.478V96.499C360.858 96.2012 360.981 95.9155 361.196 95.705L361.249 95.6533C361.465 95.4431 361.757 95.3261 362.062 95.3261H366.145C366.782 95.3261 367.297 94.8227 367.298 94.2021V90.6269C367.298 90.0077 366.782 89.5058 366.145 89.5058H362.066C361.762 89.5058 361.468 89.3871 361.252 89.1767L361.196 89.1201C360.981 88.9095 360.858 88.6258 360.858 88.3281V84.3496C360.858 83.7291 360.343 83.2267 359.707 83.2265H349.66C349.354 83.2265 349.062 83.1079 348.846 82.8974L348.789 82.8418C348.574 82.6312 348.453 82.3468 348.453 82.0478V77.6679C348.453 77.3701 348.574 77.0845 348.789 76.874L348.846 76.8164C349.062 76.6071 349.355 76.4883 349.66 76.4883H366.145C366.782 76.4883 367.298 75.9854 367.298 75.3662V71.791C367.298 71.1717 366.782 70.6699 366.145 70.6699H350.072Z" fill="#44EB99"/>
</svg>
